<svg width="18" height="19" viewBox="0 0 18 19" fill="none" xmlns="http://www.w3.org/2000/svg">
<mask id="mask0_783_264" style="mask-type:alpha" maskUnits="userSpaceOnUse" x="0" y="0" width="18" height="19">
<rect y="0.5" width="18" height="18" fill="#D9D9D9"/>
</mask>
<g mask="url(#mask0_783_264)">
<path d="M7.5 12.3127H10.5C10.6594 12.3127 10.7929 12.2588 10.9007 12.1509C11.0086 12.0432 11.0625 11.9096 11.0625 11.7502V10.4377H9.9375V11.1877H8.0625V7.81274H9.9375V8.56274H11.0625V7.25006C11.0625 7.09056 11.0086 6.95699 10.9007 6.84937C10.7929 6.74162 10.6594 6.68774 10.5 6.68774H7.5C7.34063 6.68774 7.20706 6.74168 7.09931 6.84956C6.99144 6.95731 6.9375 7.09087 6.9375 7.25024V11.7502C6.9375 11.9096 6.99144 12.0432 7.09931 12.1509C7.20706 12.2588 7.34063 12.3127 7.5 12.3127ZM9.00131 16.6252C8.01581 16.6252 7.0895 16.4382 6.22237 16.0642C5.35525 15.6902 4.601 15.1827 3.95963 14.5416C3.31825 13.9004 2.81044 13.1465 2.43619 12.2797C2.06206 11.413 1.875 10.4869 1.875 9.50156C1.875 8.51606 2.062 7.58974 2.436 6.72262C2.81 5.85549 3.31756 5.10124 3.95869 4.45987C4.59981 3.81849 5.35375 3.31068 6.2205 2.93643C7.08725 2.56231 8.01331 2.37524 8.99869 2.37524C9.98419 2.37524 10.9105 2.56224 11.7776 2.93624C12.6448 3.31024 13.399 3.81781 14.0404 4.45893C14.6818 5.10006 15.1896 5.85399 15.5638 6.72074C15.9379 7.58749 16.125 8.51356 16.125 9.49893C16.125 10.4844 15.938 11.4107 15.564 12.2779C15.19 13.145 14.6824 13.8992 14.0413 14.5406C13.4002 15.182 12.6463 15.6898 11.7795 16.0641C10.9128 16.4382 9.98669 16.6252 9.00131 16.6252ZM9 15.5002C10.675 15.5002 12.0938 14.919 13.2563 13.7565C14.4188 12.594 15 11.1752 15 9.50024C15 7.82524 14.4188 6.40649 13.2563 5.24399C12.0938 4.08149 10.675 3.50024 9 3.50024C7.325 3.50024 5.90625 4.08149 4.74375 5.24399C3.58125 6.40649 3 7.82524 3 9.50024C3 11.1752 3.58125 12.594 4.74375 13.7565C5.90625 14.919 7.325 15.5002 9 15.5002Z" fill="#1C1B1F"/>
</g>
</svg>
