<svg width="46" height="52" viewBox="0 0 46 52" fill="none" xmlns="http://www.w3.org/2000/svg">
<path d="M35.125 0.291992L45.125 10.292H35.125V0.291992Z" fill="#EB0036"/>
<path d="M45.1263 10.292V51.9587H6.79297V0.291992H35.1263V10.292H45.1263Z" fill="#B8002A"/>
<path d="M30.125 2.7915H0.125V16.1248H30.125V2.7915Z" fill="#8A191C"/>
<path d="M34.5398 35.6619C32.8329 35.1344 31.0516 34.8882 29.2657 34.9327C28.0798 33.9159 27.0201 32.7607 26.109 31.4919C26.9378 29.5187 27.4489 27.4266 27.6232 25.2935C27.6232 22.5269 26.6232 21.9602 25.1232 21.9602C23.6232 21.9602 22.8898 23.6519 22.714 25.101C22.4513 27.4397 23.0111 29.7969 24.2973 31.7677C23.6798 33.2918 22.9861 34.784 22.219 36.2385C19.3492 37.2509 16.8272 39.0599 14.9482 41.4535C14.7665 41.7402 13.889 43.231 14.5057 44.3535C14.7094 44.6803 15.0021 44.9423 15.3493 45.1088C15.6966 45.2753 16.0841 45.3393 16.4665 45.2935C18.4057 45.2935 21.099 41.7677 23.354 37.5585C25.0725 37.0023 26.8597 36.6866 28.6648 36.6202C29.8299 37.5905 31.0497 38.4931 32.3182 39.3235C34.0398 40.4602 35.3732 40.7935 36.3957 40.3394C36.7114 40.1933 36.9871 39.973 37.1992 39.6973C37.4114 39.4216 37.5537 39.0986 37.614 38.756C37.6201 38.7133 37.6232 38.6701 37.6232 38.6269C37.6232 37.386 36.5282 36.3327 34.5398 35.6619ZM16.4665 43.6269C16.2959 43.6418 16.1242 43.6146 15.9665 43.5477C15.9662 43.1395 16.0878 42.7405 16.3157 42.4019C17.5416 40.8062 19.1072 39.5033 20.899 38.5877C19.1582 41.4894 17.4107 43.6269 16.4665 43.6269ZM24.3682 25.3019C24.4907 24.2935 24.904 23.6269 25.1232 23.6269C25.7123 23.6269 25.9565 23.6269 25.9565 25.2935C25.8803 26.7953 25.5788 28.2771 25.0623 29.6894C24.3937 28.3304 24.1517 26.8009 24.3682 25.3019ZM24.3615 35.5727C24.7232 34.8227 25.0657 34.061 25.384 33.3085C25.8819 33.9323 26.4158 34.5264 26.9832 35.0877C26.1 35.1945 25.2244 35.3565 24.3615 35.5727ZM35.709 38.8227C35.5423 38.8894 34.8857 39.0252 33.2365 37.9352C32.6126 37.5224 32.0293 37.1172 31.4865 36.7194C32.3416 36.8058 33.1854 36.9815 34.004 37.2435C35.254 37.6602 35.8673 38.201 35.9448 38.5569C35.9252 38.6147 35.8939 38.6679 35.8529 38.7132C35.8119 38.7585 35.7621 38.7949 35.7065 38.8202L35.709 38.8227Z" fill="#F2F2F2"/>
<path d="M17.0566 41.5449C17.9636 40.7076 18.9767 39.9931 20.07 39.4199C19.3119 40.7229 18.4443 41.959 17.4766 43.1149C18.8314 41.7788 19.9856 40.2535 20.9033 38.5866C19.4563 39.3375 18.1539 40.3392 17.0566 41.5449Z" fill="#73001A"/>
<path d="M19.293 6.12435V13.6243H20.9596V10.291H24.293V8.62435H20.9596V6.95768H24.293V5.29102H20.1263C19.9053 5.29102 19.6933 5.37881 19.537 5.53509C19.3808 5.69137 19.293 5.90334 19.293 6.12435Z" fill="#F2F2F2"/>
<path d="M8.45833 5.29102H5.95833C5.73732 5.29102 5.52536 5.37881 5.36908 5.53509C5.2128 5.69137 5.125 5.90334 5.125 6.12435V13.6243H6.79167V10.291H8.45833C9.12137 10.291 9.75726 10.0276 10.2261 9.55878C10.6949 9.08994 10.9583 8.45406 10.9583 7.79102C10.9583 7.12797 10.6949 6.49209 10.2261 6.02325C9.75726 5.55441 9.12137 5.29102 8.45833 5.29102ZM8.45833 8.62435H6.79167V6.95768H8.45833C8.67935 6.95768 8.89131 7.04548 9.04759 7.20176C9.20387 7.35804 9.29167 7.57 9.29167 7.79102C9.29167 8.01203 9.20387 8.22399 9.04759 8.38027C8.89131 8.53655 8.67935 8.62435 8.45833 8.62435Z" fill="#F2F2F2"/>
<path d="M14.293 5.29102H12.6263C12.4053 5.29102 12.1933 5.37881 12.037 5.53509C11.8808 5.69137 11.793 5.90334 11.793 6.12435V12.791C11.793 13.012 11.8808 13.224 12.037 13.3803C12.1933 13.5366 12.4053 13.6243 12.6263 13.6243H14.293C15.398 13.6243 16.4578 13.1854 17.2392 12.404C18.0206 11.6226 18.4596 10.5628 18.4596 9.45768C18.4596 8.35261 18.0206 7.29281 17.2392 6.5114C16.4578 5.73 15.398 5.29102 14.293 5.29102ZM14.293 11.9577H13.4596V6.95768H14.293C14.956 6.95768 15.5919 7.22107 16.0607 7.68992C16.5296 8.15876 16.793 8.79464 16.793 9.45768C16.793 10.1207 16.5296 10.7566 16.0607 11.2255C15.5919 11.6943 14.956 11.9577 14.293 11.9577Z" fill="#F2F2F2"/>
<path d="M6.79297 10.2931V11.1264H7.6263C8.05468 11.1252 8.47553 11.0137 8.84831 10.8027C9.22109 10.5916 9.53322 10.2881 9.75464 9.92139C9.36554 10.1624 8.91733 10.291 8.45964 10.2931H6.79297Z" fill="#73001A"/>
</svg>
